<svg xmlns="http://www.w3.org/2000/svg" viewBox="0 0 5547.16 1996.17">
  <defs>
    <style>
      .cls-1 {
        fill: #4f2361;
      }

      .cls-2 {
        fill: #a4509f;
      }

      .cls-3 {
        fill: #ed2790;
      }

      .cls-4 {
        fill: #51c7f0;
      }

      .cls-5 {
        fill: #4fc7f0;
      }

      .cls-6 {
        font-size: 149.31px;
      }

      .cls-6, .cls-7 {
        fill: #f1f2f2;
        font-family: Arial-Black, Arial;
        font-weight: 800;
      }

      .cls-7 {
        font-size: 200px;
      }

      .cls-8 {
        letter-spacing: 0.01em;
      }

      .cls-9 {
        letter-spacing: -0.03em;
      }
    </style>
  </defs>
  <title>roulette_board</title>
  <g id="bg">
    <rect class="cls-1" width="5547.16" height="1996.17" rx="289.79"/>
  </g>
  <g id="zeros">
    <rect class="cls-2" x="30.9" y="424.76" width="358.64" height="555.93"/>
    <rect class="cls-2" x="30.9" y="1017.62" width="358.64" height="556.04"/>
  </g>
  <g id="rows">
    <rect class="cls-2" x="5159.18" y="424.76" width="358.64" height="358.64"/>
    <rect class="cls-2" x="5159.18" y="819.26" width="358.64" height="358.64"/>
    <rect class="cls-2" x="5159.18" y="1213.76" width="358.64" height="358.64"/>
  </g>
  <g id="top">
    <rect class="cls-2" x="2004.48" y="30.25" width="1542.15" height="358.64"/>
    <rect class="cls-2" x="3582.5" y="30.25" width="1542.15" height="358.64"/>
    <rect class="cls-2" x="426.47" y="30.25" width="1542.15" height="358.64"/>
  </g>
  <g id="bottom">
    <rect class="cls-2" x="426.47" y="1606.47" width="753.14" height="358.64"/>
    <rect class="cls-2" x="1215.48" y="1606.47" width="753.14" height="358.64"/>
    <rect class="cls-3" x="2002.5" y="1606.47" width="753.14" height="358.64"/>
    <rect class="cls-4" x="2791.51" y="1606.47" width="753.14" height="358.64"/>
    <rect class="cls-2" x="3582.5" y="1606.47" width="753.14" height="358.64"/>
    <rect class="cls-2" x="4371.5" y="1606.47" width="753.14" height="358.64"/>
  </g>
  <g id="corners">
    <path class="cls-2" d="M5159.18,30.25h78.18a280.46,280.46,0,0,1,280.46,280.46v78.18a0,0,0,0,1,0,0H5159.18a0,0,0,0,1,0,0V30.25A0,0,0,0,1,5159.18,30.25Z"/>
    <path class="cls-2" d="M5159.18,1606.47h358.64a0,0,0,0,1,0,0v78.18a280.46,280.46,0,0,1-280.46,280.46h-78.18a0,0,0,0,1,0,0V1606.47A0,0,0,0,1,5159.18,1606.47Z"/>
    <path class="cls-2" d="M311.36,30.66h78.18a0,0,0,0,1,0,0V389.3a0,0,0,0,1,0,0H30.9a0,0,0,0,1,0,0V311.11A280.46,280.46,0,0,1,311.36,30.66Z"/>
    <path class="cls-2" d="M30.9,1606.88H389.54a0,0,0,0,1,0,0v358.64a0,0,0,0,1,0,0H311.36A280.46,280.46,0,0,1,30.9,1685.06v-78.18A0,0,0,0,1,30.9,1606.88Z"/>
  </g>
  <g id="num-cons">
    <path class="cls-3" d="M426.47,424.76H785.11a0,0,0,0,1,0,0V744.29A39.11,39.11,0,0,1,746,783.4H426.47a0,0,0,0,1,0,0V424.76A0,0,0,0,1,426.47,424.76Z"/>
    <path class="cls-5" d="M821,424.76h358.64a0,0,0,0,1,0,0V744.29a39.11,39.11,0,0,1-39.11,39.11H860.08A39.11,39.11,0,0,1,821,744.29V424.76A0,0,0,0,1,821,424.76Z"/>
    <path class="cls-3" d="M1215.48,424.76h358.64a0,0,0,0,1,0,0V744.29A39.11,39.11,0,0,1,1535,783.4H1254.58a39.11,39.11,0,0,1-39.11-39.11V424.76A0,0,0,0,1,1215.48,424.76Z"/>
    <path class="cls-3" d="M1610,424.76h358.64a0,0,0,0,1,0,0V744.29a39.11,39.11,0,0,1-39.11,39.11H1649.09A39.11,39.11,0,0,1,1610,744.29V424.76A0,0,0,0,1,1610,424.76Z"/>
    <path class="cls-5" d="M2004.48,424.76h358.64a0,0,0,0,1,0,0V744.29A39.11,39.11,0,0,1,2324,783.4H2043.59a39.11,39.11,0,0,1-39.11-39.11V424.76A0,0,0,0,1,2004.48,424.76Z"/>
    <path class="cls-3" d="M2399,424.76h358.64a0,0,0,0,1,0,0V744.29a39.11,39.11,0,0,1-39.11,39.11H2438.09A39.11,39.11,0,0,1,2399,744.29V424.76A0,0,0,0,1,2399,424.76Z"/>
    <path class="cls-3" d="M2793.49,424.76h358.64a0,0,0,0,1,0,0V744.29A39.11,39.11,0,0,1,3113,783.4H2832.6a39.11,39.11,0,0,1-39.11-39.11V424.76A0,0,0,0,1,2793.49,424.76Z"/>
    <path class="cls-5" d="M3188,424.76h358.64a0,0,0,0,1,0,0V744.29a39.11,39.11,0,0,1-39.11,39.11H3227.1A39.11,39.11,0,0,1,3188,744.29V424.76A0,0,0,0,1,3188,424.76Z"/>
    <path class="cls-3" d="M3582.5,424.76h358.64a0,0,0,0,1,0,0V744.29A39.11,39.11,0,0,1,3902,783.4H3621.6a39.11,39.11,0,0,1-39.11-39.11V424.76A0,0,0,0,1,3582.5,424.76Z"/>
    <path class="cls-3" d="M3977,424.76h358.64a0,0,0,0,1,0,0V744.29a39.11,39.11,0,0,1-39.11,39.11H4016.11A39.11,39.11,0,0,1,3977,744.29V424.76A0,0,0,0,1,3977,424.76Z"/>
    <path class="cls-5" d="M4371.5,424.76h358.64a0,0,0,0,1,0,0V744.29A39.11,39.11,0,0,1,4691,783.4H4410.61a39.11,39.11,0,0,1-39.11-39.11V424.76A0,0,0,0,1,4371.5,424.76Z"/>
    <path class="cls-3" d="M4766,424.76h358.64a0,0,0,0,1,0,0V783.4a0,0,0,0,1,0,0H4805.11A39.11,39.11,0,0,1,4766,744.29V424.76A0,0,0,0,1,4766,424.76Z"/>
    <path class="cls-5" d="M426.47,819.26H746a39.11,39.11,0,0,1,39.11,39.11v280.43A39.11,39.11,0,0,1,746,1177.9H426.47a0,0,0,0,1,0,0V819.26A0,0,0,0,1,426.47,819.26Z"/>
    <rect class="cls-3" x="820.97" y="819.26" width="358.64" height="358.64" rx="39.11"/>
    <rect class="cls-5" x="1215.48" y="819.26" width="358.64" height="358.64" rx="39.11"/>
    <rect class="cls-5" x="1609.98" y="819.26" width="358.64" height="358.64" rx="39.11"/>
    <rect class="cls-3" x="2004.48" y="819.26" width="358.64" height="358.64" rx="39.11"/>
    <rect class="cls-5" x="2398.99" y="819.26" width="358.64" height="358.64" rx="39.11"/>
    <rect class="cls-5" x="2793.49" y="819.26" width="358.64" height="358.64" rx="39.11"/>
    <rect class="cls-3" x="3187.99" y="819.26" width="358.64" height="358.64" rx="39.11"/>
    <rect class="cls-5" x="3582.5" y="819.26" width="358.64" height="358.64" rx="39.11"/>
    <rect class="cls-5" x="3977" y="819.26" width="358.64" height="358.64" rx="39.11"/>
    <rect class="cls-3" x="4371.5" y="819.26" width="358.64" height="358.64" rx="39.11"/>
    <path class="cls-5" d="M4805.11,819.26h319.53a0,0,0,0,1,0,0V1177.9a0,0,0,0,1,0,0H4805.11a39.11,39.11,0,0,1-39.11-39.11V858.37A39.11,39.11,0,0,1,4805.11,819.26Z"/>
    <path class="cls-3" d="M426.47,1213.76H746a39.11,39.11,0,0,1,39.11,39.11V1572.4a0,0,0,0,1,0,0H426.47a0,0,0,0,1,0,0V1213.76A0,0,0,0,1,426.47,1213.76Z"/>
    <path class="cls-5" d="M860.08,1213.76h280.43a39.11,39.11,0,0,1,39.11,39.11V1572.4a0,0,0,0,1,0,0H821a0,0,0,0,1,0,0V1252.87A39.11,39.11,0,0,1,860.08,1213.76Z"/>
    <path class="cls-3" d="M1254.58,1213.76H1535a39.11,39.11,0,0,1,39.11,39.11V1572.4a0,0,0,0,1,0,0H1215.48a0,0,0,0,1,0,0V1252.87A39.11,39.11,0,0,1,1254.58,1213.76Z"/>
    <path class="cls-5" d="M1649.09,1213.76h280.43a39.11,39.11,0,0,1,39.11,39.11V1572.4a0,0,0,0,1,0,0H1610a0,0,0,0,1,0,0V1252.87A39.11,39.11,0,0,1,1649.09,1213.76Z"/>
    <path class="cls-5" d="M2043.59,1213.76H2324a39.11,39.11,0,0,1,39.11,39.11V1572.4a0,0,0,0,1,0,0H2004.48a0,0,0,0,1,0,0V1252.87A39.11,39.11,0,0,1,2043.59,1213.76Z"/>
    <path class="cls-3" d="M2438.09,1213.76h280.43a39.11,39.11,0,0,1,39.11,39.11V1572.4a0,0,0,0,1,0,0H2399a0,0,0,0,1,0,0V1252.87A39.11,39.11,0,0,1,2438.09,1213.76Z"/>
    <path class="cls-3" d="M2832.6,1213.76H3113a39.11,39.11,0,0,1,39.11,39.11V1572.4a0,0,0,0,1,0,0H2793.49a0,0,0,0,1,0,0V1252.87A39.11,39.11,0,0,1,2832.6,1213.76Z"/>
    <path class="cls-5" d="M3227.1,1213.76h280.43a39.11,39.11,0,0,1,39.11,39.11V1572.4a0,0,0,0,1,0,0H3188a0,0,0,0,1,0,0V1252.87A39.11,39.11,0,0,1,3227.1,1213.76Z"/>
    <path class="cls-3" d="M3621.6,1213.76H3902a39.11,39.11,0,0,1,39.11,39.11V1572.4a0,0,0,0,1,0,0H3582.5a0,0,0,0,1,0,0V1252.87A39.11,39.11,0,0,1,3621.6,1213.76Z"/>
    <path class="cls-5" d="M4016.11,1213.76h280.43a39.11,39.11,0,0,1,39.11,39.11V1572.4a0,0,0,0,1,0,0H3977a0,0,0,0,1,0,0V1252.87A39.11,39.11,0,0,1,4016.11,1213.76Z"/>
    <path class="cls-5" d="M4410.61,1213.76H4691a39.11,39.11,0,0,1,39.11,39.11V1572.4a0,0,0,0,1,0,0H4371.5a0,0,0,0,1,0,0V1252.87A39.11,39.11,0,0,1,4410.61,1213.76Z"/>
    <path class="cls-3" d="M4805.11,1213.76h319.53a0,0,0,0,1,0,0V1572.4a0,0,0,0,1,0,0H4766a0,0,0,0,1,0,0V1252.87A39.11,39.11,0,0,1,4805.11,1213.76Z"/>
  </g>
  <g id="Layer_9" data-name="Layer 9">
    <text class="cls-6" transform="translate(554.17 1455.57)">1</text>
    <text class="cls-6" transform="translate(554.17 1054.57)">2</text>
    <text class="cls-6" transform="translate(554.17 666.57)">3</text>
    <text class="cls-7" transform="translate(137.92 778.02)">0</text>
    <text class="cls-7" transform="translate(71.04 1363.72)">00</text>
    <text class="cls-6" transform="translate(940.81 1456.31)">4</text>
    <text class="cls-6" transform="translate(940.81 1055.31)">5</text>
    <text class="cls-6" transform="translate(940.81 666.57)">6</text>
    <text class="cls-7" transform="translate(958.76 279.65)">1-12</text>
    <text class="cls-7" transform="translate(2478.36 279.65)">13-24</text>
    <text class="cls-7" transform="translate(4051.04 279.65)">25-36</text>
    <text class="cls-6" transform="translate(1341.96 1458.99)">7</text>
    <text class="cls-6" transform="translate(1341.96 1057.99)">8</text>
    <text class="cls-6" transform="translate(1341.96 669.25)">9</text>
    <text class="cls-6" transform="translate(1691.35 1459.74)">10</text>
    <text class="cls-6" transform="translate(1691.35 1058.74)">11</text>
    <text class="cls-6" transform="translate(1691.35 669.99)">12</text>
    <text class="cls-6" transform="translate(2082.57 1459.36)">13</text>
    <text class="cls-6" transform="translate(2082.57 1058.36)">14</text>
    <text class="cls-6" transform="translate(2082.57 669.62)">15</text>
    <text class="cls-6" transform="translate(2475.75 1458.8)">16</text>
    <text class="cls-7" transform="translate(2129.01 1853.68)">Pink</text>
    <text class="cls-7" transform="translate(1358.18 1855.73)">O<tspan class="cls-8" x="166.6" y="0">d</tspan><tspan x="301.95" y="0">d</tspan></text>
    <text class="cls-7" transform="translate(570.42 1853.68)">1-18</text>
    <text class="cls-7" transform="translate(2923.29 1855.72)">Blue</text>
    <text class="cls-7" transform="translate(3696.46 1853.68)">E<tspan class="cls-9" x="144.43" y="0">v</tspan><tspan x="261.43" y="0">en</tspan></text>
    <text class="cls-7" transform="translate(4438.8 1853.68)">19-36</text>
    <text class="cls-6" transform="translate(2475.75 1057.8)">17</text>
    <text class="cls-6" transform="translate(2475.75 669.06)">18</text>
    <text class="cls-6" transform="translate(2865.21 1459.18)">19</text>
    <text class="cls-6" transform="translate(2865.21 1058.18)">20</text>
    <text class="cls-6" transform="translate(2865.21 669.44)">21</text>
    <text class="cls-6" transform="translate(3270.51 1460.08)">22</text>
    <text class="cls-6" transform="translate(3270.51 1059.08)">23</text>
    <text class="cls-6" transform="translate(3270.51 670.34)">24</text>
    <text class="cls-6" transform="translate(3664.25 1459.71)">25</text>
    <text class="cls-6" transform="translate(3664.25 1058.71)">26</text>
    <text class="cls-6" transform="translate(3664.25 669.97)">27</text>
    <text class="cls-6" transform="translate(4062.68 1459.89)">28</text>
    <text class="cls-6" transform="translate(4062.68 1058.89)">29</text>
    <text class="cls-6" transform="translate(4062.68 670.15)">30</text>
    <text class="cls-6" transform="translate(4450.42 1459.52)">31</text>
    <text class="cls-6" transform="translate(4450.42 1058.52)">32</text>
    <text class="cls-6" transform="translate(4450.42 669.78)">33</text>
    <text class="cls-6" transform="translate(4848.42 1458.62)">34</text>
    <text class="cls-6" transform="translate(4848.42 1057.62)">35</text>
    <text class="cls-6" transform="translate(4848.42 668.88)">36</text>
    <text class="cls-7" transform="translate(5179.74 679.24)">2-1</text>
    <text class="cls-7" transform="translate(5179.74 1077.51)">2-1</text>
    <text class="cls-7" transform="translate(5179.74 1463.58)">2-1</text>
  </g>
</svg>
